<?xml version="1.0" standalone="no"?>
<!DOCTYPE svg PUBLIC "-//W3C//DTD SVG 20010904//EN"
 "http://www.w3.org/TR/2001/REC-SVG-20010904/DTD/svg10.dtd">
<svg version="1.0" xmlns="http://www.w3.org/2000/svg"
 width="744.000000pt" height="527.000000pt" viewBox="0 0 744.000000 527.000000"
 preserveAspectRatio="xMidYMid meet">
<metadata>
Created by potrace 1.15, written by Peter Selinger 2001-2017
</metadata>
<g transform="translate(0.000000,527.000000) scale(0.100000,-0.100000)"
fill="#000000" stroke="none">
<path d="M6291 5170 c-260 -26 -605 -157 -1040 -397 -75 -41 -170 -96 -211
-122 -41 -27 -120 -76 -175 -111 -125 -79 -204 -145 -220 -184 -10 -24 -10
-38 0 -73 7 -24 10 -45 7 -47 -4 -2 -47 6 -97 17 -78 17 -128 20 -365 21 -274
1 -276 1 -425 -32 -201 -43 -382 -105 -548 -188 -131 -66 -375 -217 -439 -271
-9 -8 -27 -13 -40 -11 -22 4 -21 6 20 46 25 25 42 50 40 60 -2 9 -32 31 -67
50 -56 28 -74 32 -140 32 -42 0 -103 -5 -136 -10 -33 -5 -141 -19 -240 -30
-337 -38 -526 -83 -842 -199 -326 -120 -586 -236 -724 -326 -203 -131 -443
-337 -478 -408 -62 -128 13 -239 194 -288 77 -21 97 -22 483 -20 222 1 412 -1
422 -4 12 -4 21 -20 26 -48 10 -52 11 -59 13 -74 2 -20 23 -16 98 18 88 40
147 46 214 25 56 -19 73 -17 189 21 41 13 104 27 139 30 l64 6 -6 -29 c-47
-222 -51 -268 -51 -514 0 -224 3 -257 27 -381 64 -328 220 -666 423 -917 77
-96 220 -238 322 -320 649 -522 1532 -605 2291 -215 153 78 294 164 398 243
80 60 97 69 123 64 31 -7 42 10 20 32 -6 6 18 37 70 87 493 481 721 1173 606
1842 -53 309 -166 587 -334 825 -29 41 -68 98 -86 125 -19 28 -67 86 -107 129
l-72 77 34 34 c194 188 410 392 530 499 312 280 555 506 585 542 65 82 68 113
24 236 -34 92 -67 131 -127 147 -54 15 -280 21 -392 11z m383 -208 c6 -9 -85
-99 -269 -268 -66 -60 -217 -198 -335 -307 -118 -108 -298 -277 -400 -376
l-185 -179 -35 26 c-155 118 -385 242 -562 303 -54 19 -98 37 -98 42 0 9 98
72 127 81 13 4 26 18 29 32 3 13 10 24 15 24 4 0 21 13 37 28 73 71 534 322
797 434 295 125 470 166 712 167 89 1 164 -3 167 -7z m-2284 -841 c178 -34
306 -75 494 -156 123 -53 291 -160 438 -277 78 -63 104 -91 119 -126 13 -30
24 -42 34 -38 14 5 137 -120 208 -214 176 -232 329 -621 367 -932 76 -622
-126 -1229 -559 -1680 -38 -41 -51 -48 -83 -48 -38 0 -51 -16 -22 -27 22 -8
-10 -40 -121 -123 -144 -106 -224 -150 -389 -211 -483 -180 -1011 -166 -1496
39 -378 160 -727 464 -942 820 -143 237 -248 539 -278 797 -15 137 -12 431 6
552 19 128 27 151 56 155 21 3 22 7 23 103 1 112 16 157 120 366 134 269 372
548 616 721 210 150 472 247 804 297 33 5 157 8 275 7 170 -3 239 -8 330 -25z
m-1829 -337 c8 -8 19 -14 23 -14 4 0 19 -9 33 -19 19 -16 30 -18 50 -10 18 6
30 6 36 0 6 -6 9 -12 6 -14 -2 -2 -35 -29 -72 -62 l-68 -59 -70 17 c-67 16
-89 16 -89 -2 0 -12 48 -31 80 -31 44 0 45 -17 6 -63 -174 -203 -290 -381
-375 -578 l-34 -77 -121 -6 c-66 -4 -195 -14 -286 -23 -91 -8 -176 -15 -190
-14 -14 1 -232 2 -485 4 -454 2 -461 2 -525 25 -132 48 -186 123 -148 207 11
25 111 107 228 185 95 64 345 185 530 256 422 163 620 215 990 259 118 15 244
30 280 35 82 11 180 3 201 -16z"/>
<path d="M3978 3469 c19 -26 -11 -43 -82 -47 -175 -10 -227 -13 -296 -16 l-75
-3 3 -28 c2 -16 -3 -32 -14 -39 -15 -11 -15 -15 -2 -42 9 -16 18 -46 21 -68 3
-21 13 -46 21 -55 8 -9 20 -48 26 -86 6 -38 22 -97 36 -131 13 -34 36 -126 50
-205 14 -79 30 -169 35 -199 6 -30 14 -102 19 -159 6 -79 12 -108 24 -117 23
-16 32 -57 46 -192 9 -86 9 -116 0 -127 -7 -8 -9 -26 -5 -43 4 -20 0 -36 -15
-54 -11 -14 -20 -31 -20 -37 0 -14 33 -31 59 -31 25 0 26 -8 4 -32 -10 -11
-13 -22 -7 -27 14 -13 286 5 409 28 72 13 115 16 126 10 20 -10 62 2 74 22 5
7 -1 19 -14 28 -12 9 -23 28 -25 41 -1 14 -5 32 -8 40 -22 56 -41 234 -48 465
-5 183 -12 275 -23 310 -8 28 -20 88 -27 135 -19 140 -40 248 -56 278 -7 15
-14 45 -14 68 0 22 -4 44 -9 50 -5 5 -14 52 -21 104 -12 101 -28 140 -60 140
-10 0 -24 8 -29 18 -9 15 -10 15 -11 1 0 -16 -27 -29 -63 -29 -10 0 -16 4 -13
9 3 5 -2 15 -12 22 -15 12 -16 12 -4 -2z"/>
<path d="M4174 1334 c-59 -28 -111 -30 -136 -7 -19 17 -21 17 -50 0 -17 -10
-50 -17 -78 -17 -27 0 -52 -6 -58 -13 -14 -16 -19 -68 -8 -85 4 -7 3 -19 -4
-27 -8 -10 -9 -38 -1 -109 14 -127 14 -146 -3 -146 -28 0 -28 -23 0 -47 28
-25 31 -25 154 -20 71 3 164 14 217 26 51 11 102 20 115 20 13 -1 37 6 53 15
17 9 40 16 51 16 32 0 89 26 75 34 -17 11 -14 116 3 116 8 0 17 4 20 9 3 5 -2
8 -12 7 -13 -1 -18 8 -20 39 -1 22 -5 57 -8 78 -7 40 -4 43 24 26 15 -9 34 -7
91 11 40 12 70 24 67 27 -2 3 -33 0 -68 -5 -103 -16 -120 -12 -130 25 -5 18
-16 37 -26 42 -10 5 -63 9 -119 9 -83 -1 -109 -5 -149 -24z"/>
</g>
</svg>
